<svg width="35" height="74" viewBox="0 0 35 74" fill="none" xmlns="http://www.w3.org/2000/svg">
<g clip-path="url(#clip0_329_2255)">
<path d="M5.90311 73.9425L6.09074 73.4612H3.92579L6.9062 65.3786C8.03919 62.4186 8.1294 62.1456 8.55878 61.2655L8.133 60.9458C6.73163 61.5234 5.256 61.9031 3.74898 62.0738L3.583 62.5156L6.28919 62.2893L3.96909 68.6116C3.69125 69.3624 3.41342 70.1132 3.13558 70.8424C2.55826 72.4374 2.50414 72.5523 2.13249 73.515L0.115482 73.5581L-0.0685425 74.0395C0.81187 74.0108 1.67785 73.9964 2.56187 73.9856C3.96187 73.9856 5.30775 73.9497 5.92115 73.9605" fill="#221F20"/>
<path d="M35 61.8801L35.1407 61.0538L34.7041 60.7593C33.8343 61.2293 32.8646 61.4866 31.8752 61.51C31.085 61.51 29.8221 61.3843 29.2881 60.7916C28.5847 61.6477 27.8149 62.4476 26.9861 63.184L27.3108 63.4966L28.3933 62.6775C29.1312 62.897 29.9005 62.9941 30.6701 62.9649C31.2622 62.9514 31.8527 62.8997 32.4381 62.8104L29.5948 65.5657C29.041 66.1394 28.4517 66.6781 27.8304 67.1786L28.2129 67.5378C28.6964 67.1412 29.2885 66.8983 29.9123 66.8409C30.634 66.8409 31.5938 67.3043 31.6118 68.7843C31.6371 70.5804 30.5294 72.434 28.9201 73.0519C28.3326 73.4146 27.6557 73.6086 26.9644 73.6123C26.8162 73.6142 26.6679 73.607 26.5206 73.5907C27.0156 73.7445 27.5319 73.8197 28.0505 73.8134C30.9082 73.7739 33.6036 71.4354 33.5747 69.0789C33.5711 68.7047 33.4923 68.3351 33.3428 67.9918C33.1934 67.6485 32.9764 67.3384 32.7047 67.0799C32.4329 66.8215 32.1119 66.6198 31.7606 66.4868C31.4093 66.3538 31.0349 66.2922 30.6593 66.3057C30.4569 66.3096 30.2553 66.3313 30.0567 66.3703L29.6959 66.4889C31.2164 64.6912 33.0053 63.1368 35 61.8801Z" fill="#221F20"/>
<path d="M21.0758 70.6017C19.95 70.6017 19.2212 69.7252 19.1995 68.1338C19.1743 66.0934 20.5274 63.0616 22.4073 63.0364C23.4609 63.0364 24.1861 63.9884 24.2114 65.6336C24.2366 67.3938 23.2804 70.5729 21.0794 70.6017M26.0047 66.0252C25.9758 63.9094 24.6949 62.3324 22.9665 62.3539C22.4326 62.3763 21.9118 62.5253 21.4475 62.7886C21.1059 63.0012 20.7824 63.2415 20.4804 63.507C20.7186 63.0724 20.9567 62.6413 21.2021 62.2246C22.1298 60.7474 23.4756 59.5763 25.0701 58.8587C25.9653 58.4528 26.9207 58.1944 27.899 58.0935L27.9315 57.605C21.9129 57.7415 17.5758 62.5156 17.6335 67.1388C17.6696 69.6533 19.1562 71.2016 21.2237 71.1764C23.6304 71.1441 26.0299 69.0211 25.9902 66.0216" fill="#221F20"/>
<path d="M14.1659 63.4602C15.501 63.4602 16.0747 62.8352 16.5943 62.2676C16.8575 61.9768 17.0987 61.667 17.3159 61.3408L16.9948 61.0821C16.3417 61.5779 16.0422 61.8006 15.1402 61.8186C13.8412 61.7469 12.5645 61.4528 11.3659 60.9492C11.3298 61.0426 10.8969 62.2676 10.8066 62.5119L9.45716 65.9747C8.98448 67.1602 8.69221 67.875 8.30974 68.6294L8.98448 68.6582C9.11077 68.2055 9.48963 66.9267 11.1061 66.9087C12.4989 66.9087 13.2097 68.0223 13.2242 69.2401C13.2092 70.0104 12.9994 70.7644 12.614 71.4325C12.2287 72.1006 11.6802 72.6612 11.0195 73.0622C10.377 73.5668 9.58268 73.8413 8.76437 73.8417C8.46984 73.8446 8.17586 73.8157 7.88757 73.7555C8.43735 73.9514 9.01762 74.0486 9.60149 74.0429C12.1273 74.0106 15.1798 71.9666 15.1438 69.2149C15.1314 68.3695 14.7824 67.5636 14.1735 66.9742C13.5646 66.3848 12.7455 66.0602 11.8963 66.0717C11.2143 66.1004 10.5535 66.3167 9.98757 66.6968C9.89376 66.7543 9.81799 66.7938 9.72778 66.8513L11.2757 63.0291C12.2071 63.2993 13.1707 63.4442 14.1407 63.4602" fill="#221F20"/>
<path d="M21.7001 54.685V53.6073H21.5341V53.6361C21.5341 54.3258 21.3176 54.5234 20.5635 54.5234H19.9393L21.9166 51.8076H19.315V52.9248H19.4846V52.8961C19.4846 52.3105 19.6362 51.9729 20.4119 51.9729H21.0145L19.0228 54.6922L21.7001 54.685Z" fill="#221F20"/>
<path d="M17.6191 53.1655H17.7057V54.042C17.6619 54.1952 17.566 54.3284 17.4343 54.4188C17.3026 54.5093 17.1435 54.5513 16.9841 54.5377C16.5836 54.5377 16.5078 54.3006 16.5078 53.8911C16.5078 53.2194 17.0093 53.1727 17.6155 53.1727M16.7207 54.7676C16.9028 54.7853 17.0866 54.7601 17.2571 54.6939C17.4276 54.6278 17.58 54.5226 17.7021 54.3868L17.7202 54.3617V54.3904C17.7633 54.5032 17.8434 54.5981 17.9475 54.6598C18.0644 54.732 18.1996 54.7694 18.3372 54.7676C18.4694 54.7713 18.5999 54.7365 18.7126 54.6676C18.8254 54.5987 18.9156 54.4987 18.9722 54.3797V54.3581L18.8495 54.2719V54.2934C18.7341 54.4551 18.6475 54.5593 18.5104 54.5593C18.3733 54.5593 18.3336 54.412 18.3336 54.2827V52.4865C18.3336 51.9477 17.7238 51.6567 17.1537 51.6567C16.432 51.6567 16.0712 52.0519 16.0712 52.4255C16.0712 52.6805 16.2011 52.8386 16.4068 52.8386C16.4516 52.8431 16.4969 52.8383 16.5399 52.8245C16.5828 52.8108 16.6224 52.7884 16.6563 52.7587C16.6901 52.7291 16.7175 52.6928 16.7366 52.6521C16.7558 52.6115 16.7663 52.5674 16.7676 52.5225C16.7743 52.4631 16.7631 52.403 16.7355 52.3499C16.7079 52.2968 16.665 52.2531 16.6124 52.2243C16.5655 52.192 16.5403 52.174 16.5403 52.1202C16.5403 51.901 16.9805 51.8256 17.1825 51.8256C17.5434 51.8256 17.7202 51.9549 17.7202 52.1848V53.0074H17.6191C16.7604 53.0074 15.8439 53.2661 15.8439 53.9989C15.8439 54.4802 16.1794 54.7676 16.7387 54.7676" fill="#221F20"/>
<path d="M3.6768 54.5158H3.02731V52.2707H3.51081C4.23246 52.2707 4.27937 52.5904 4.27937 53.0825V53.1112H4.44535V51.2181H4.27937V51.2469C4.27937 51.6779 4.21803 52.1018 3.51803 52.1018H3.02731V49.9465H4.10978C4.93968 49.9465 5.30412 50.259 5.32937 50.9846V51.0098H5.50617L5.40514 49.7812H1.63092V49.9321H2.26236V54.5122H1.63092V54.681H3.6768V54.5158Z" fill="#221F20"/>
<path d="M23.0712 50.8123C23.147 50.813 23.2213 50.7913 23.2847 50.7499C23.348 50.7085 23.3976 50.6493 23.4271 50.5798C23.4566 50.5103 23.4647 50.4336 23.4504 50.3595C23.436 50.2854 23.3999 50.2172 23.3465 50.1636C23.2932 50.11 23.2251 50.0733 23.1508 50.0584C23.0765 50.0434 22.9994 50.0507 22.9293 50.0794C22.8592 50.1081 22.7992 50.1569 22.7571 50.2196C22.7149 50.2823 22.6923 50.3561 22.6923 50.4316C22.6919 50.4814 22.7013 50.5308 22.7201 50.577C22.739 50.6232 22.7668 50.6652 22.802 50.7006C22.8373 50.736 22.8792 50.7641 22.9254 50.7833C22.9716 50.8025 23.0211 50.8123 23.0712 50.8123Z" fill="#221F20"/>
<path d="M31.482 52.6334C31.482 52.2741 31.5866 51.8143 32.0809 51.8143C32.4418 51.8143 32.6294 52.0838 32.6294 52.6334V52.8058H31.4964L31.482 52.6334ZM33.25 53.6464V53.6715C33.2132 53.9304 33.0832 54.1673 32.884 54.3378C32.6848 54.5083 32.4302 54.6009 32.1675 54.5983C32.0816 54.6045 31.9952 54.5931 31.9139 54.5647C31.8326 54.5362 31.758 54.4915 31.6949 54.4331C31.519 54.1873 31.443 53.8845 31.482 53.5853V52.9674H33.2608C33.2733 52.9686 33.2859 52.967 33.2976 52.9627C33.3094 52.9584 33.32 52.9515 33.3286 52.9425C33.3373 52.9335 33.3438 52.9227 33.3477 52.9108C33.3516 52.899 33.3527 52.8864 33.351 52.874C33.351 52.5579 32.9144 51.6455 32.0809 51.6455C31.3376 51.6455 30.7567 52.4861 30.7567 53.2081C30.7567 54.1241 31.3376 54.7672 32.1675 54.7672C32.4718 54.7713 32.767 54.6637 32.9966 54.4649C33.2262 54.2661 33.3743 53.9901 33.4124 53.6895V53.6536L33.25 53.6464Z" fill="#221F20"/>
<path d="M28.7217 54.5161H28.1949V52.6015C28.3212 52.3644 28.6134 51.8148 29.1691 51.8148C29.4217 51.8148 29.548 51.9728 29.548 52.2889V54.5161H28.9995V54.685H30.7351V54.5161H30.1866V52.447C30.1866 52.0878 30.017 51.6387 29.2088 51.6387H29.1114L28.9382 51.6711C28.8852 51.6867 28.8333 51.7059 28.783 51.7285C28.7337 51.7503 28.6865 51.7768 28.6423 51.8076H28.617L28.581 51.8291C28.4402 51.9379 28.3183 52.069 28.2201 52.2171L28.1877 52.2638V51.5669L28.1371 51.628C28.0217 51.7681 27.9098 51.7681 27.5779 51.7681H27.0005V51.9369H27.549V54.4874H27.0005V54.6562H28.7145L28.7217 54.5161Z" fill="#221F20"/>
<path d="M5.90677 52.9387C5.90677 52.2813 5.96089 51.8143 6.68254 51.8143C7.40419 51.8143 7.45831 52.2813 7.45831 52.9387V53.4739C7.45831 54.1349 7.40058 54.5983 6.68254 54.5983C5.9645 54.5983 5.90677 54.1349 5.90677 53.4739V52.9387ZM6.68254 54.7672C6.9958 54.7815 7.3062 54.7021 7.57371 54.5392C7.84123 54.3763 8.0536 54.1373 8.18344 53.8532C8.31328 53.569 8.35463 53.2526 8.30217 52.9448C8.24972 52.637 8.10585 52.3519 7.88913 52.1262C7.6724 51.9006 7.39275 51.7447 7.08623 51.6788C6.77971 51.6129 6.46038 51.6398 6.16941 51.7563C5.87843 51.8727 5.62916 52.0732 5.45372 52.332C5.27828 52.5908 5.18473 52.8959 5.18512 53.2081C5.17887 53.4088 5.21283 53.6087 5.28501 53.7962C5.3572 53.9837 5.46616 54.155 5.60555 54.3001C5.74494 54.4453 5.91196 54.5613 6.09687 54.6415C6.28178 54.7217 6.48087 54.7644 6.68254 54.7672Z" fill="#221F20"/>
<path d="M13.6067 51.8145C13.867 51.8372 14.1089 51.9573 14.2837 52.1507C14.4585 52.344 14.5531 52.5962 14.5485 52.8563V53.6609C14.552 53.9111 14.456 54.1526 14.2815 54.3327C14.1156 54.5003 13.8899 54.5959 13.6536 54.5985C13.0222 54.5985 12.932 54.268 12.932 53.2083C12.932 52.2635 13.033 51.8145 13.6175 51.8145M13.6644 54.7673C13.8356 54.7618 14.003 54.716 14.1529 54.6336C14.3029 54.5511 14.431 54.4345 14.5268 54.2932L14.5593 54.2465V54.6847H15.6742V54.5159H15.1979V49.5083L15.1546 49.573C15.0774 49.6376 14.9874 49.6854 14.8904 49.7132C14.7935 49.7411 14.6917 49.7483 14.5918 49.7346H14.0108V49.9034H14.5665V52.2779L14.534 52.2204C14.4444 52.0639 14.3212 51.929 14.1732 51.8253C14.0127 51.7127 13.8211 51.6525 13.6247 51.6529C13.4251 51.6567 13.229 51.706 13.0513 51.7969C12.8737 51.8878 12.7194 52.0179 12.6 52.1773C12.3597 52.4715 12.224 52.8365 12.2139 53.2155C12.2028 53.4129 12.2315 53.6106 12.2985 53.7967C12.3656 53.9829 12.4695 54.1538 12.6041 54.2992C12.7387 54.4446 12.9013 54.5616 13.0822 54.6432C13.2631 54.7249 13.4587 54.7695 13.6572 54.7745" fill="#221F20"/>
<path d="M23.948 54.5157H23.3923V51.606L23.3418 51.6563C23.1799 51.7718 22.98 51.8218 22.7825 51.7964H22.198V51.9652H22.7536V54.5157H22.198V54.6845H23.948V54.5157Z" fill="#221F20"/>
<path d="M24.7165 52.9387C24.7165 52.2813 24.7706 51.8143 25.4923 51.8143C26.2139 51.8143 26.2681 52.2813 26.2681 52.9387V53.4739C26.2681 54.1349 26.2103 54.5983 25.4923 54.5983C24.7742 54.5983 24.7165 54.1349 24.7165 53.4739V52.9387ZM25.4923 54.7672C25.8056 54.7815 26.116 54.7021 26.3835 54.5392C26.651 54.3763 26.8634 54.1373 26.9932 53.8532C27.123 53.569 27.1644 53.2526 27.1119 52.9448C27.0595 52.637 26.9156 52.3519 26.6989 52.1262C26.4821 51.9006 26.2025 51.7447 25.896 51.6788C25.5895 51.6129 25.2701 51.6398 24.9792 51.7563C24.6882 51.8727 24.4389 52.0732 24.2635 52.332C24.088 52.5908 23.9945 52.8959 23.9949 53.2081C23.9886 53.4088 24.0226 53.6087 24.0948 53.7962C24.167 53.9837 24.2759 54.155 24.4153 54.3001C24.5547 54.4453 24.7217 54.5613 24.9066 54.6415C25.0915 54.7217 25.2906 54.7644 25.4923 54.7672Z" fill="#221F20"/>
<path d="M10.0526 54.5159H9.5258V52.6012C9.65209 52.3641 9.94436 51.8145 10.5 51.8145C10.7526 51.8145 10.8825 51.9726 10.8825 52.2887V54.5159H10.334V54.6847H12.066V54.5159H11.5212V52.4468C11.5212 52.0875 11.3516 51.6385 10.5433 51.6385H10.4423L10.2727 51.6709C10.2195 51.6858 10.1676 51.705 10.1176 51.7283C10.0713 51.7488 10.0266 51.7728 9.98405 51.8002L9.95158 51.8217L9.91189 51.8433C9.77108 51.9521 9.64918 52.0831 9.55106 52.2312L9.52219 52.2779V51.5811L9.46807 51.6421C9.35261 51.7822 9.24075 51.7822 8.90879 51.7822H8.33508V51.951H8.87993V54.5015H8.33508V54.6704H10.049L10.0526 54.5159Z" fill="#221F20"/>
<path d="M22.4325 21.7764H12.6181V31.5472H22.4325V21.7764Z" fill="#006D41"/>
<path d="M22.4325 -0.0966797H12.6181V9.67419H22.4325V-0.0966797Z" fill="#D93171"/>
<path d="M11.4454 10.8379H1.63092V20.6088H11.4454V10.8379Z" fill="#D93171"/>
<path d="M11.4454 32.7109H1.63092V42.4818H11.4454V32.7109Z" fill="#006D41"/>
<path d="M33.4196 10.8379H23.6051V20.6088H33.4196V10.8379Z" fill="#D93171"/>
<path d="M33.4196 32.7109H23.6051V42.4818H33.4196V32.7109Z" fill="#006D41"/>
</g>
<defs>
<clipPath id="clip0_329_2255">
<rect width="35" height="74" fill="white"/>
</clipPath>
</defs>
</svg>
