<svg width="154" height="68" viewBox="0 0 154 68" fill="none" xmlns="http://www.w3.org/2000/svg">
<path d="M83.8539 61.6975L84.2932 60.5525L79.1573 60.5759L86.2255 41.3122C88.9042 34.2626 89.1258 33.6239 90.1406 31.5168L89.1297 30.7573C87.3218 31.509 84.472 32.6385 78.753 33.4447L78.3564 34.4963L84.7597 33.955L79.2273 48.9655C78.5702 50.7493 77.9093 52.537 77.2523 54.2741C75.8915 58.0715 75.7593 58.348 74.8806 60.6343L70.1102 60.7433L69.6709 61.8884C71.7626 61.8144 73.8076 61.7871 75.8954 61.7599C79.2117 61.717 82.3959 61.6742 83.85 61.7014" fill="#222221"/>
<path d="M152.712 32.9658L153.042 30.9989L152.008 30.2979C149.489 31.626 147.18 32.0544 145.309 32.0817C143.439 32.105 140.454 31.7896 139.19 30.3796C137.172 32.7243 135.022 35.0729 133.743 36.0699L134.509 36.8177L137.11 34.8664C138.136 35.1663 139.699 35.5909 142.506 35.5519C144.108 35.5325 145.574 35.3338 146.686 35.1858L139.96 41.7407C137.895 43.8206 137.499 44.136 135.78 45.5849L136.682 46.4223C137.522 45.8303 138.976 44.7865 140.71 44.7631C142.448 44.7397 144.687 45.8692 144.734 49.394C144.792 53.7094 142.153 58.0872 138.358 59.5594C137.09 60.3695 135.485 60.8681 133.731 60.8914C133.378 60.8953 133.028 60.8759 132.686 60.8408C133.801 61.1874 135.042 61.3822 136.301 61.3666C143.066 61.277 149.45 55.7075 149.376 50.0912C149.333 46.9247 146.884 43.435 142.479 43.4934C141.989 43.5012 141.546 43.5518 141.056 43.6453C140.792 43.7388 140.481 43.8323 140.212 43.9218C140.166 43.8323 145.516 37.476 152.712 32.9658" fill="#222221"/>
<path d="M119.766 53.7361C117.095 53.7712 115.377 51.6524 115.326 47.8628C115.264 43.0021 118.464 35.7811 122.916 35.7227C125.408 35.6915 127.13 37.9856 127.181 41.9115C127.235 46.1023 124.976 53.6699 119.766 53.74M131.422 42.8385C131.356 37.7986 128.324 34.0479 124.23 34.1025C122.982 34.1181 121.741 34.5387 120.637 35.1307C119.797 35.6331 119.051 36.268 118.343 36.8561C118.907 35.824 119.475 34.788 120.085 33.7987C122.134 30.605 124.949 27.7579 129.241 25.7832C132.293 24.4044 134.696 24.1045 135.94 23.9565L136.014 22.7959C121.773 23.1192 111.505 34.492 111.648 45.5064C111.726 51.481 115.249 55.1811 120.143 55.1149C125.839 55.0409 131.519 50.0166 131.426 42.8385" fill="#222221"/>
<path d="M103.406 36.728C106.566 36.6852 107.927 35.2402 109.156 33.8887C110.167 32.7592 110.47 32.3113 110.909 31.6804L110.143 31.065C108.6 32.2451 107.896 32.7904 105.758 32.8176C103.176 32.8527 99.1562 31.7466 96.8273 30.7495C96.7418 30.9754 95.7115 33.8848 95.4977 34.469L92.3096 42.7182C91.1899 45.5419 90.5017 47.2478 89.5881 49.0433L91.1899 49.1134C91.4893 48.0385 92.3835 44.9928 96.2091 44.946C99.5022 44.9032 101.186 47.6023 101.225 50.5C101.267 53.721 99.3194 57.7326 96.007 59.6021C94.6618 60.716 92.7723 61.4288 90.665 61.456C89.9458 61.4638 89.2576 61.3898 88.5967 61.2535C89.8447 61.7053 91.256 61.9585 92.6517 61.939C98.6585 61.8611 105.855 56.9926 105.766 50.4377C105.703 45.7561 101.749 42.909 98.0987 42.9558C96.2713 42.9792 94.724 43.7153 93.577 44.4436C93.3554 44.5799 93.1805 44.6734 92.9589 44.8097L96.6251 35.7076C99.44 36.5177 102.115 36.7514 103.406 36.7319" fill="#222221"/>
<path d="M122.313 18.3873V15.5246H121.874V15.6025C121.874 17.4214 121.302 17.9472 119.331 17.9472H117.698L122.877 10.7729H116.057V13.7291H116.497V13.6551C116.497 12.1128 116.893 11.217 118.931 11.217H120.509L115.292 18.3912H122.313V18.3873Z" fill="#222221"/>
<path d="M111.605 14.3988H111.838V16.7084C111.838 17.0239 111.27 18.0171 109.952 18.0171C108.907 18.0171 108.701 17.39 108.701 16.3073C108.701 14.5429 110.019 14.3988 111.605 14.3988ZM109.26 18.6052C110.466 18.6052 111.235 18.3053 111.834 17.5964L111.885 17.538L111.912 17.612C112.017 17.9041 112.223 18.1495 112.507 18.3287C112.798 18.5117 113.152 18.6091 113.529 18.6091C114.264 18.6091 114.793 18.2858 115.193 17.5886L115.228 17.5302L114.913 17.3004L114.871 17.3627C114.571 17.7834 114.346 18.0599 113.988 18.0599C113.572 18.0599 113.518 17.6704 113.518 17.3355V12.5644C113.518 11.1428 111.924 10.3755 110.427 10.3755C108.561 10.3755 107.554 11.4193 107.554 12.4008C107.554 13.0746 107.888 13.4952 108.428 13.4952C108.969 13.4952 109.338 13.133 109.338 12.6539C109.338 12.1398 109.117 11.9918 108.934 11.8711C108.806 11.7854 108.736 11.7348 108.736 11.5946C108.736 11.0103 109.894 10.8156 110.423 10.8156C111.348 10.8156 111.838 11.1544 111.838 11.7971V13.9626H111.57C109.319 13.9626 106.916 14.652 106.916 16.5877C106.916 17.8535 107.795 18.613 109.264 18.613" fill="#222221"/>
<path d="M75.0401 17.9431H73.3333V12.0113H74.6046C76.4786 12.0113 76.6186 12.8604 76.6186 14.1574V14.2314H77.0579V9.23825H76.6186V9.31225C76.6186 10.4534 76.463 11.5673 74.6202 11.5673H73.3333V5.85367H76.1481C78.3253 5.85367 79.2779 6.67158 79.344 8.58392V8.65403H79.8105L79.5422 5.40967H69.6748V5.85367H71.3272V17.9392H69.6748V18.3832H75.0401V17.9392V17.9431Z" fill="#222221"/>
<path d="M125.909 8.17133C126.461 8.17133 126.912 7.71954 126.912 7.16648C126.912 6.61342 126.461 6.16162 125.909 6.16162C125.357 6.16162 124.906 6.61342 124.906 7.16648C124.906 7.71954 125.357 8.17133 125.909 8.17133Z" fill="#222221"/>
<path d="M147.961 12.9777C147.961 11.9884 148.237 10.8122 149.539 10.8122C150.503 10.8122 150.974 11.521 150.974 12.9777V13.3555L150.962 13.3866L150.935 13.4139H147.961V12.9777ZM152.603 15.6534L152.591 15.7157C152.338 17.2035 151.227 18.1655 149.757 18.1655C149.217 18.1655 148.816 18.0214 148.525 17.7254C148.004 17.1957 147.949 16.2532 147.961 15.4898V13.854H152.63C152.782 13.854 152.867 13.7644 152.867 13.6164C152.867 12.7829 151.724 10.3721 149.539 10.3721C147.584 10.3721 146.063 12.5843 146.063 14.4889C146.063 16.9114 147.584 18.6057 149.757 18.6057C151.444 18.6057 152.727 17.4801 153.031 15.7391L153.046 15.6495H152.603V15.6534Z" fill="#222221"/>
<path d="M140.726 17.9436H139.346L139.353 12.8882C139.68 12.265 140.45 10.8123 141.904 10.8123C142.565 10.8123 142.903 11.2329 142.903 12.0664V17.9475H141.468V18.3915H146.017V17.9475H144.583V12.5065C144.583 11.5328 144.139 10.3722 142.017 10.3722C141.966 10.3722 141.919 10.3761 141.869 10.3839L141.756 10.3955C141.612 10.4111 141.472 10.4345 141.309 10.4773C141.177 10.5124 141.045 10.5591 140.901 10.6253C140.788 10.676 140.671 10.7422 140.531 10.8318L140.469 10.8707C140.434 10.8902 140.403 10.9096 140.368 10.933C139.933 11.2602 139.618 11.6691 139.431 11.9535L139.346 12.082V10.2397L139.213 10.4033C138.91 10.7772 138.615 10.7772 137.744 10.7772H136.231V11.2173H137.666V17.9514H136.231V18.3954H140.726V17.9514V17.9436Z" fill="#222221"/>
<path d="M80.8875 13.7761C80.8875 12.039 81.0353 10.8122 82.9209 10.8122C84.8065 10.8122 84.9543 12.0429 84.9543 13.7761V15.1977C84.9543 16.9348 84.8104 18.1616 82.9209 18.1616C81.0314 18.1616 80.8875 16.9309 80.8875 15.1977V13.7761ZM82.9209 18.6057C84.8532 18.6057 86.8515 17.0672 86.8515 14.4889C86.8515 11.9105 84.8532 10.3721 82.9209 10.3721C80.9886 10.3721 78.9941 11.9105 78.9941 14.4889C78.9941 17.0672 80.9925 18.6057 82.9209 18.6057Z" fill="#222221"/>
<path d="M101.081 10.8122C102.535 10.8122 103.549 12.261 103.549 13.558V15.6884C103.557 16.3661 103.312 16.9932 102.854 17.4567C102.41 17.9046 101.812 18.1616 101.209 18.1616C99.5489 18.1616 99.2845 17.2892 99.2845 14.4849C99.2845 11.9962 99.5528 10.8083 101.081 10.8083M101.209 18.6017C102.251 18.6017 103.06 17.9552 103.468 17.3515L103.549 17.2269V18.3836H106.481V17.9396H105.225V4.7207L105.093 4.8726C104.747 5.26987 104.179 5.30103 103.623 5.30103H102.095V5.74114H103.549V12.0079L103.464 11.856C103.227 11.4392 102.904 11.077 102.527 10.8199C102.084 10.5162 101.598 10.3643 101.081 10.3643C100.062 10.3643 99.1095 10.855 98.3942 11.743C97.7643 12.5298 97.3872 13.5541 97.3872 14.481C97.3872 16.8296 99.0279 18.5978 101.205 18.5978" fill="#222221"/>
<path d="M128.203 17.9432H126.749V10.2627L126.621 10.3912C126.271 10.7417 125.699 10.769 125.147 10.769H123.619V11.2091H125.073V17.9432H123.619V18.3872H128.203V17.9432Z" fill="#222221"/>
<path d="M130.221 13.7761C130.221 12.039 130.368 10.8122 132.254 10.8122C134.14 10.8122 134.287 12.0429 134.287 13.7761V15.1977C134.287 16.9348 134.14 18.1616 132.254 18.1616C130.368 18.1616 130.221 16.9309 130.221 15.1977V13.7761ZM132.254 18.6057C134.186 18.6057 136.181 17.0672 136.181 14.4889C136.181 11.9105 134.182 10.3721 132.254 10.3721C130.326 10.3721 128.327 11.9105 128.327 14.4889C128.327 17.0672 130.326 18.6057 132.254 18.6057Z" fill="#222221"/>
<path d="M91.7581 17.9431H90.3779L90.3856 12.8838C90.7122 12.2645 91.482 10.8079 92.9361 10.8079C93.597 10.8079 93.9353 11.2285 93.9353 12.062V17.9431H92.5006V18.3871H97.0494V17.9431H95.6148V12.5021C95.6148 11.5284 95.1716 10.3678 93.0488 10.3678C93.0022 10.3678 92.9516 10.3717 92.9011 10.3794L92.7883 10.3911C92.6445 10.4067 92.5045 10.4301 92.3412 10.4729C92.2129 10.508 92.0807 10.5547 91.933 10.6209C91.8203 10.6716 91.7075 10.7339 91.5909 10.8079L91.4976 10.8663C91.4665 10.8858 91.4315 10.9052 91.4004 10.9286C90.9649 11.2519 90.65 11.6608 90.4634 11.949L90.3779 12.0776V10.2314L90.2457 10.395C89.9424 10.7689 89.6469 10.7689 88.776 10.7689H87.2637V11.209H88.6983V17.9431H87.2637V18.3871H91.7581V17.9431V17.9431Z" fill="#222221"/>
<path d="M53.3297 0H52.7427V67.2046H53.3297V0Z" fill="#222221"/>
<path d="M23.817 34.2822H12.5811V45.5382H23.817V34.2822Z" fill="#1A693B"/>
<path d="M23.817 9.08252H12.5811V20.3385H23.817V9.08252Z" fill="#C40066"/>
<path d="M11.236 21.6821H0V32.9381H11.236V21.6821Z" fill="#C40066"/>
<path d="M11.236 46.8813H0V58.1373H11.236V46.8813Z" fill="#1A693B"/>
<path d="M36.3947 21.6821H25.1587V32.9381H36.3947V21.6821Z" fill="#C40066"/>
<path d="M36.3947 46.8813H25.1587V58.1373H36.3947V46.8813Z" fill="#1A693B"/>
</svg>
