<svg width="26" height="25" viewBox="0 0 26 25" fill="none" xmlns="http://www.w3.org/2000/svg">
<path d="M11.5149 11.2199L11.8103 10.5305L10.0869 9.79192L10.8255 11.5153L11.5149 11.2199ZM22.9795 16.1333L23.3685 16.7744L24.6148 16.0182L23.2749 15.4439L22.9795 16.1333ZM16.4283 22.6844L15.7389 22.9799L16.3132 24.3198L17.0695 23.0735L16.4283 22.6844ZM18.9023 18.6073L18.5133 17.9662L18.3564 18.0614L18.2612 18.2183L18.9023 18.6073ZM7.64848 14.3858C5.7322 12.4695 5.74774 9.31277 7.72574 7.33477L6.66508 6.27411C4.12043 8.81875 4.0668 12.9255 6.58782 15.4465L7.64848 14.3858ZM7.72574 7.33477C9.70374 5.35677 12.8605 5.34123 14.7768 7.25751L15.8375 6.19685C13.3164 3.67582 9.20973 3.72946 6.66508 6.27411L7.72574 7.33477ZM11.5909 15.7841C10.1687 15.9225 8.71793 15.4553 7.64848 14.3858L6.58782 15.4465C7.99187 16.8505 9.89278 17.4565 11.7362 17.277L11.5909 15.7841ZM14.7768 7.25751C15.8462 8.32696 16.3135 9.77772 16.1751 11.1999L17.668 11.3452C17.8475 9.5018 17.2415 7.6009 15.8375 6.19685L14.7768 7.25751ZM5.01871 17.2154C1.52857 13.7252 1.52175 8.07943 4.99608 4.60511L3.93542 3.54445C-0.128 7.60787 -0.11456 14.2034 3.95805 18.276L5.01871 17.2154ZM4.99608 4.60511C8.47041 1.13078 14.1162 1.1376 17.6063 4.62773L18.667 3.56707C14.5944 -0.505533 7.99884 -0.518972 3.93542 3.54445L4.99608 4.60511ZM13.107 19.6634C10.2751 20.232 7.21841 19.4151 5.01871 17.2154L3.95805 18.276C6.52654 20.8445 10.0979 21.7976 13.4023 21.134L13.107 19.6634ZM17.6063 4.62773C19.8061 6.82744 20.623 9.88415 20.0544 12.7161L21.525 13.0114C22.1885 9.70688 21.2355 6.13557 18.667 3.56707L17.6063 4.62773ZM11.2194 11.9092L22.684 16.8226L23.2749 15.4439L11.8103 10.5305L11.2194 11.9092ZM17.1176 22.389L12.2042 10.9244L10.8255 11.5153L15.7389 22.9799L17.1176 22.389ZM22.5904 15.4921L18.5133 17.9662L19.2914 19.2485L23.3685 16.7744L22.5904 15.4921ZM18.2612 18.2183L15.7871 22.2954L17.0695 23.0735L19.5435 18.9964L18.2612 18.2183ZM18.689 19.4547L23.0565 23.8221L24.1171 22.7615L19.7497 18.394L18.689 19.4547Z" fill="#B29880"/>
</svg>
