<svg width="2196" height="63" viewBox="0 0 2196 63" fill="none" xmlns="http://www.w3.org/2000/svg">
<line x1="0.128906" y1="57.2993" x2="2195.48" y2="57.2993" stroke="black"/>
<path d="M81.7834 6.65159H84.8514V19.1836H87.1134V2.69959H85.6314C85.0334 4.41559 84.0714 5.19559 81.7834 5.19559V6.65159ZM100.765 2.80359H91.1711C91.0931 5.50759 90.5471 9.69359 90.1311 11.9556L92.3671 12.1116C92.9651 10.9936 94.1351 10.0316 95.9551 10.0316C98.2691 10.0316 99.6731 11.6176 99.6731 13.7756C99.6731 16.1676 98.2691 17.7016 95.9551 17.7016C93.3811 17.7016 92.0551 16.0376 92.0551 13.5676L89.8711 13.3856C89.6891 17.0256 91.9511 19.4956 95.9031 19.4956C99.4651 19.4956 101.857 17.1556 101.857 13.7496C101.857 10.7336 99.9331 8.23759 96.2151 8.23759C94.3951 8.23759 93.0691 8.99159 92.3151 9.90159C92.4971 9.06959 92.8871 5.71559 92.9131 4.83159H100.765V2.80359ZM114.295 2.80359H104.701C104.623 5.50759 104.077 9.69359 103.661 11.9556L105.897 12.1116C106.495 10.9936 107.665 10.0316 109.485 10.0316C111.799 10.0316 113.203 11.6176 113.203 13.7756C113.203 16.1676 111.799 17.7016 109.485 17.7016C106.911 17.7016 105.585 16.0376 105.585 13.5676L103.401 13.3856C103.219 17.0256 105.481 19.4956 109.433 19.4956C112.995 19.4956 115.387 17.1556 115.387 13.7496C115.387 10.7336 113.463 8.23759 109.745 8.23759C107.925 8.23759 106.599 8.99159 105.845 9.90159C106.027 9.06959 106.417 5.71559 106.443 4.83159H114.295V2.80359ZM130.425 10.9936C130.425 5.55959 127.903 2.49159 123.613 2.49159C119.323 2.49159 116.827 5.55959 116.827 10.9936C116.827 16.4276 119.323 19.4956 123.613 19.4956C127.903 19.4956 130.425 16.4276 130.425 10.9936ZM128.059 10.9936C128.059 15.4396 126.629 17.6756 123.613 17.6756C120.597 17.6756 119.167 15.4396 119.167 10.9936C119.167 6.54759 120.597 4.31159 123.613 4.31159C126.629 4.31159 128.059 6.54759 128.059 10.9936Z" fill="black"/>
<circle cx="106.523" cy="56.5406" r="5.357" fill="black"/>
<path d="M408.783 6.65159H411.851V19.1836H414.113V2.69959H412.631C412.033 4.41559 411.071 5.19559 408.783 5.19559V6.65159ZM423.501 4.28559C425.711 4.28559 426.803 5.58559 427.089 7.50959L429.247 7.43159C428.961 4.36359 426.777 2.49159 423.527 2.49159C418.925 2.49159 416.767 6.18359 416.767 11.3056C416.767 16.3236 419.055 19.4956 423.423 19.4956C427.089 19.4956 429.403 17.1816 429.403 13.8016C429.403 10.5776 427.193 8.26359 423.657 8.26359C421.005 8.26359 419.341 9.71959 418.769 11.6176C418.743 7.32759 420.173 4.28559 423.501 4.28559ZM419.419 13.8796C419.419 11.5656 420.849 10.0576 423.319 10.0576C425.815 10.0576 427.245 11.5656 427.245 13.8796C427.245 16.1676 425.815 17.6756 423.397 17.6756C420.953 17.6756 419.419 16.1416 419.419 13.8796ZM444.479 10.9936C444.479 5.55959 441.957 2.49159 437.667 2.49159C433.377 2.49159 430.881 5.55959 430.881 10.9936C430.881 16.4276 433.377 19.4956 437.667 19.4956C441.957 19.4956 444.479 16.4276 444.479 10.9936ZM442.113 10.9936C442.113 15.4396 440.683 17.6756 437.667 17.6756C434.651 17.6756 433.221 15.4396 433.221 10.9936C433.221 6.54759 434.651 4.31159 437.667 4.31159C440.683 4.31159 442.113 6.54759 442.113 10.9936ZM459.634 10.9936C459.634 5.55959 457.112 2.49159 452.822 2.49159C448.532 2.49159 446.036 5.55959 446.036 10.9936C446.036 16.4276 448.532 19.4956 452.822 19.4956C457.112 19.4956 459.634 16.4276 459.634 10.9936ZM457.268 10.9936C457.268 15.4396 455.838 17.6756 452.822 17.6756C449.806 17.6756 448.376 15.4396 448.376 10.9936C448.376 6.54759 449.806 4.31159 452.822 4.31159C455.838 4.31159 457.268 6.54759 457.268 10.9936Z" fill="black"/>
<circle cx="434.523" cy="56.5406" r="5.357" fill="black"/>
<path d="M737.283 6.65159H740.351V19.1836H742.613V2.69959H741.131C740.533 4.41559 739.571 5.19559 737.283 5.19559V6.65159ZM752.001 4.28559C754.211 4.28559 755.303 5.58559 755.589 7.50959L757.747 7.43159C757.461 4.36359 755.277 2.49159 752.027 2.49159C747.425 2.49159 745.267 6.18359 745.267 11.3056C745.267 16.3236 747.555 19.4956 751.923 19.4956C755.589 19.4956 757.903 17.1816 757.903 13.8016C757.903 10.5776 755.693 8.26359 752.157 8.26359C749.505 8.26359 747.841 9.71959 747.269 11.6176C747.243 7.32759 748.673 4.28559 752.001 4.28559ZM747.919 13.8796C747.919 11.5656 749.349 10.0576 751.819 10.0576C754.315 10.0576 755.745 11.5656 755.745 13.8796C755.745 16.1676 754.315 17.6756 751.897 17.6756C749.453 17.6756 747.919 16.1416 747.919 13.8796ZM770.379 2.80359H760.785C760.707 5.50759 760.161 9.69359 759.745 11.9556L761.981 12.1116C762.579 10.9936 763.749 10.0316 765.569 10.0316C767.883 10.0316 769.287 11.6176 769.287 13.7756C769.287 16.1676 767.883 17.7016 765.569 17.7016C762.995 17.7016 761.669 16.0376 761.669 13.5676L759.485 13.3856C759.303 17.0256 761.565 19.4956 765.517 19.4956C769.079 19.4956 771.471 17.1556 771.471 13.7496C771.471 10.7336 769.547 8.23759 765.829 8.23759C764.009 8.23759 762.683 8.99159 761.929 9.90159C762.111 9.06959 762.501 5.71559 762.527 4.83159H770.379V2.80359ZM786.509 10.9936C786.509 5.55959 783.987 2.49159 779.697 2.49159C775.407 2.49159 772.911 5.55959 772.911 10.9936C772.911 16.4276 775.407 19.4956 779.697 19.4956C783.987 19.4956 786.509 16.4276 786.509 10.9936ZM784.143 10.9936C784.143 15.4396 782.713 17.6756 779.697 17.6756C776.681 17.6756 775.251 15.4396 775.251 10.9936C775.251 6.54759 776.681 4.31159 779.697 4.31159C782.713 4.31159 784.143 6.54759 784.143 10.9936Z" fill="black"/>
<circle cx="762.523" cy="56.5406" r="5.357" fill="black"/>
<path d="M1065.78 6.65159H1068.85V19.1836H1071.11V2.69959H1069.63C1069.03 4.41559 1068.07 5.19559 1065.78 5.19559V6.65159ZM1082.2 4.83159C1078.92 8.28959 1076.92 13.3856 1076.84 19.1836H1079.28C1079.34 13.6196 1080.66 8.44559 1084.74 4.18159V2.80359H1073.2V4.83159H1082.2ZM1099.12 10.9936C1099.12 5.55959 1096.6 2.49159 1092.31 2.49159C1088.02 2.49159 1085.52 5.55959 1085.52 10.9936C1085.52 16.4276 1088.02 19.4956 1092.31 19.4956C1096.6 19.4956 1099.12 16.4276 1099.12 10.9936ZM1096.75 10.9936C1096.75 15.4396 1095.32 17.6756 1092.31 17.6756C1089.29 17.6756 1087.86 15.4396 1087.86 10.9936C1087.86 6.54759 1089.29 4.31159 1092.31 4.31159C1095.32 4.31159 1096.75 6.54759 1096.75 10.9936ZM1114.27 10.9936C1114.27 5.55959 1111.75 2.49159 1107.46 2.49159C1103.17 2.49159 1100.68 5.55959 1100.68 10.9936C1100.68 16.4276 1103.17 19.4956 1107.46 19.4956C1111.75 19.4956 1114.27 16.4276 1114.27 10.9936ZM1111.91 10.9936C1111.91 15.4396 1110.48 17.6756 1107.46 17.6756C1104.45 17.6756 1103.02 15.4396 1103.02 10.9936C1103.02 6.54759 1104.45 4.31159 1107.46 4.31159C1110.48 4.31159 1111.91 6.54759 1111.91 10.9936Z" fill="black"/>
<circle cx="1090.52" cy="56.5406" r="5.357" fill="black"/>
<path d="M1394.78 6.79466H1397.85V19.3267H1400.11V2.84266H1398.63C1398.03 4.55866 1397.07 5.33866 1394.78 5.33866V6.79466ZM1411.2 4.97466C1407.92 8.43266 1405.92 13.5287 1405.84 19.3267H1408.28C1408.34 13.7627 1409.66 8.58866 1413.74 4.32466V2.94666H1402.2V4.97466H1411.2ZM1425.54 2.94666H1415.95C1415.87 5.65066 1415.33 9.83666 1414.91 12.0987L1417.15 12.2547C1417.74 11.1367 1418.91 10.1747 1420.73 10.1747C1423.05 10.1747 1424.45 11.7607 1424.45 13.9187C1424.45 16.3107 1423.05 17.8447 1420.73 17.8447C1418.16 17.8447 1416.83 16.1807 1416.83 13.7107L1414.65 13.5287C1414.47 17.1687 1416.73 19.6387 1420.68 19.6387C1424.24 19.6387 1426.64 17.2987 1426.64 13.8927C1426.64 10.8767 1424.71 8.38066 1420.99 8.38066C1419.17 8.38066 1417.85 9.13466 1417.09 10.0447C1417.28 9.21266 1417.67 5.85866 1417.69 4.97466H1425.54V2.94666ZM1441.67 11.1367C1441.67 5.70266 1439.15 2.63466 1434.86 2.63466C1430.57 2.63466 1428.08 5.70266 1428.08 11.1367C1428.08 16.5707 1430.57 19.6387 1434.86 19.6387C1439.15 19.6387 1441.67 16.5707 1441.67 11.1367ZM1439.31 11.1367C1439.31 15.5827 1437.88 17.8187 1434.86 17.8187C1431.85 17.8187 1430.42 15.5827 1430.42 11.1367C1430.42 6.69066 1431.85 4.45466 1434.86 4.45466C1437.88 4.45466 1439.31 6.69066 1439.31 11.1367Z" fill="black"/>
<circle cx="1418.52" cy="56.6837" r="5.357" fill="black"/>
<path d="M1719.78 6.79466H1722.85V19.3267H1725.11V2.84266H1723.63C1723.03 4.55866 1722.07 5.33866 1719.78 5.33866V6.79466ZM1733.77 4.29866C1735.78 4.29866 1737.18 5.31266 1737.18 7.34066C1737.18 9.21266 1735.78 10.2527 1733.77 10.2527C1731.75 10.2527 1730.37 9.21266 1730.37 7.34066C1730.37 5.31266 1731.75 4.29866 1733.77 4.29866ZM1733.77 11.9427C1736.24 11.9427 1737.62 12.9567 1737.62 14.8807C1737.62 16.8047 1736.24 17.9487 1733.77 17.9487C1731.28 17.9487 1729.9 16.8047 1729.9 14.8807C1729.9 12.9567 1731.28 11.9427 1733.77 11.9427ZM1733.77 19.6387C1737.62 19.6387 1739.94 17.8447 1739.94 14.9847C1739.94 12.8527 1738.35 11.3967 1736.58 11.0587C1738.3 10.4347 1739.36 9.10866 1739.36 7.18466C1739.36 4.35066 1736.97 2.63466 1733.77 2.63466C1730.55 2.63466 1728.16 4.35066 1728.16 7.18466C1728.16 9.10866 1729.22 10.4347 1730.94 11.0587C1729.17 11.3967 1727.56 12.8527 1727.56 14.9847C1727.56 17.8447 1729.9 19.6387 1733.77 19.6387ZM1754.95 11.1367C1754.95 5.70266 1752.42 2.63466 1748.13 2.63466C1743.84 2.63466 1741.35 5.70266 1741.35 11.1367C1741.35 16.5707 1743.84 19.6387 1748.13 19.6387C1752.42 19.6387 1754.95 16.5707 1754.95 11.1367ZM1752.58 11.1367C1752.58 15.5827 1751.15 17.8187 1748.13 17.8187C1745.12 17.8187 1743.69 15.5827 1743.69 11.1367C1743.69 6.69066 1745.12 4.45466 1748.13 4.45466C1751.15 4.45466 1752.58 6.69066 1752.58 11.1367ZM1770.1 11.1367C1770.1 5.70266 1767.58 2.63466 1763.29 2.63466C1759 2.63466 1756.5 5.70266 1756.5 11.1367C1756.5 16.5707 1759 19.6387 1763.29 19.6387C1767.58 19.6387 1770.1 16.5707 1770.1 11.1367ZM1767.74 11.1367C1767.74 15.5827 1766.31 17.8187 1763.29 17.8187C1760.27 17.8187 1758.84 15.5827 1758.84 11.1367C1758.84 6.69066 1760.27 4.45466 1763.29 4.45466C1766.31 4.45466 1767.74 6.69066 1767.74 11.1367Z" fill="black"/>
<circle cx="1745.52" cy="56.6837" r="5.357" fill="black"/>
<path d="M2049.78 6.79466H2052.85V19.3267H2055.11V2.84266H2053.63C2053.03 4.55866 2052.07 5.33866 2049.78 5.33866V6.79466ZM2063.77 4.29866C2065.78 4.29866 2067.18 5.31266 2067.18 7.34066C2067.18 9.21266 2065.78 10.2527 2063.77 10.2527C2061.75 10.2527 2060.37 9.21266 2060.37 7.34066C2060.37 5.31266 2061.75 4.29866 2063.77 4.29866ZM2063.77 11.9427C2066.24 11.9427 2067.62 12.9567 2067.62 14.8807C2067.62 16.8047 2066.24 17.9487 2063.77 17.9487C2061.28 17.9487 2059.9 16.8047 2059.9 14.8807C2059.9 12.9567 2061.28 11.9427 2063.77 11.9427ZM2063.77 19.6387C2067.62 19.6387 2069.94 17.8447 2069.94 14.9847C2069.94 12.8527 2068.35 11.3967 2066.58 11.0587C2068.3 10.4347 2069.36 9.10866 2069.36 7.18466C2069.36 4.35066 2066.97 2.63466 2063.77 2.63466C2060.55 2.63466 2058.16 4.35066 2058.16 7.18466C2058.16 9.10866 2059.22 10.4347 2060.94 11.0587C2059.17 11.3967 2057.56 12.8527 2057.56 14.9847C2057.56 17.8447 2059.9 19.6387 2063.77 19.6387ZM2082.35 2.94666H2072.75C2072.67 5.65066 2072.13 9.83666 2071.71 12.0987L2073.95 12.2547C2074.55 11.1367 2075.72 10.1747 2077.54 10.1747C2079.85 10.1747 2081.25 11.7607 2081.25 13.9187C2081.25 16.3107 2079.85 17.8447 2077.54 17.8447C2074.96 17.8447 2073.64 16.1807 2073.64 13.7107L2071.45 13.5287C2071.27 17.1687 2073.53 19.6387 2077.48 19.6387C2081.05 19.6387 2083.44 17.2987 2083.44 13.8927C2083.44 10.8767 2081.51 8.38066 2077.8 8.38066C2075.98 8.38066 2074.65 9.13466 2073.9 10.0447C2074.08 9.21266 2074.47 5.85866 2074.49 4.97466H2082.35V2.94666ZM2098.48 11.1367C2098.48 5.70266 2095.95 2.63466 2091.66 2.63466C2087.37 2.63466 2084.88 5.70266 2084.88 11.1367C2084.88 16.5707 2087.37 19.6387 2091.66 19.6387C2095.95 19.6387 2098.48 16.5707 2098.48 11.1367ZM2096.11 11.1367C2096.11 15.5827 2094.68 17.8187 2091.66 17.8187C2088.65 17.8187 2087.22 15.5827 2087.22 11.1367C2087.22 6.69066 2088.65 4.45466 2091.66 4.45466C2094.68 4.45466 2096.11 6.69066 2096.11 11.1367Z" fill="black"/>
<circle cx="2074.52" cy="56.6837" r="5.357" fill="black"/>
</svg>
