<svg width="26" height="25" viewBox="0 0 26 25" fill="none" xmlns="http://www.w3.org/2000/svg">
<path d="M11.7873 11.3569L12.0827 10.6675L10.3593 9.92889L11.0979 11.6523L11.7873 11.3569ZM22.7466 16.0537L23.1357 16.6949L24.382 15.9386L23.0421 15.3644L22.7466 16.0537ZM16.4841 22.3162L15.7948 22.6116L16.3691 23.9516L17.1253 22.7053L16.4841 22.3162ZM18.8492 18.4188L18.4601 17.7776L18.3032 17.8728L18.208 18.0297L18.8492 18.4188ZM8.11465 14.3599C6.29614 12.5414 6.31016 9.54467 8.1885 7.66633L7.12784 6.60567C4.68285 9.05066 4.63074 12.9973 7.05399 15.4206L8.11465 14.3599ZM8.1885 7.66633C10.0668 5.78798 13.0636 5.77397 14.8821 7.59248L15.9428 6.53182C13.5195 4.10856 9.57284 4.16067 7.12784 6.60567L8.1885 7.66633ZM11.8567 15.687C10.5065 15.8185 9.1296 15.3749 8.11465 14.3599L7.05399 15.4206C8.40354 16.7701 10.2306 17.3524 12.0021 17.18L11.8567 15.687ZM14.8821 7.59248C15.897 8.60742 16.3406 9.98433 16.2092 11.3345L17.7021 11.4799C17.8746 9.70842 17.2923 7.88136 15.9428 6.53182L14.8821 7.59248ZM5.60076 17.0648C2.27727 13.7413 2.2709 8.3652 5.57914 5.05696L4.51848 3.9963C0.621147 7.89363 0.63414 14.2195 4.5401 18.1254L5.60076 17.0648ZM5.57914 5.05696C8.88737 1.74873 14.2634 1.7551 17.5869 5.07859L18.6476 4.01793C14.7416 0.111965 8.41581 0.0989727 4.51848 3.9963L5.57914 5.05696ZM13.3028 19.3959C10.6061 19.9373 7.69541 19.1594 5.60076 17.0648L4.5401 18.1254C7.00354 20.5889 10.4288 21.5029 13.5981 20.8665L13.3028 19.3959ZM17.5869 5.07859C19.6816 7.17323 20.4595 10.0839 19.918 12.7806L21.3887 13.0759C22.0251 9.90663 21.111 6.48136 18.6476 4.01793L17.5869 5.07859ZM11.4919 12.0462L22.4512 16.7431L23.0421 15.3644L12.0827 10.6675L11.4919 12.0462ZM17.1735 22.0207L12.4766 11.0614L11.0979 11.6523L15.7948 22.6116L17.1735 22.0207ZM22.3575 15.4125L18.4601 17.7776L19.2383 19.0599L23.1357 16.6949L22.3575 15.4125ZM18.208 18.0297L15.843 21.9271L17.1253 22.7053L19.4904 18.8078L18.208 18.0297ZM18.6219 19.2521L22.7969 23.4271L23.8576 22.3665L19.6826 18.1915L18.6219 19.2521Z" fill="#B29880"/>
</svg>
